<svg width="18" height="19" viewBox="0 0 18 19" fill="none" xmlns="http://www.w3.org/2000/svg">
<path fill-rule="evenodd" clip-rule="evenodd" d="M11.5222 4.50074L6.02649 9.99463C5.66186 10.3171 5.43628 10.7683 5.4 11.181V13.1026L7.25758 13.1043C7.73839 13.0703 8.18594 12.8465 8.54531 12.4355L14.001 6.97975L11.5222 4.50074ZM12.7952 3.22816L15.2738 5.70696L16.0783 4.90246C16.1563 4.82452 16.2 4.7188 16.2 4.60857C16.2 4.49834 16.1563 4.39263 16.0783 4.31468L14.185 2.42137C14.1079 2.34369 14.003 2.3 13.8936 2.3C13.7842 2.3 13.6793 2.34369 13.6022 2.42137L12.7952 3.22816ZM18 10.4V16.7C18 17.6941 17.1941 18.5 16.2 18.5H1.8C0.805887 18.5 0 17.6941 0 16.7V2.3C0 1.30589 0.805887 0.5 1.8 0.5H8.1V2.3H1.8V16.7H16.2V10.4H18ZM13.8936 0.5C14.4829 0.5 15.0478 0.735278 15.4603 1.15108L17.3511 3.04189C17.7666 3.4574 18 4.02095 18 4.60857C18 5.19619 17.7666 5.75974 17.3511 6.17525L9.86176 13.6614C9.23312 14.3865 8.34201 14.8321 7.32114 14.9021H3.6V14.0021L3.60292 11.1086C3.67959 10.1596 4.1208 9.2771 4.79385 8.68408L12.3258 1.15217C12.7408 0.734747 13.305 0.5 13.8936 0.5Z" fill="#00052C"/>
</svg>
