<svg width="10" height="10" viewBox="0 0 10 10" fill="none" xmlns="http://www.w3.org/2000/svg">
<path d="M9.80101 5.11986C9.80101 4.78218 9.76833 4.4336 9.71386 4.10681H4.99718V6.03488H7.69865C7.58972 6.65578 7.23025 7.20043 6.69649 7.54901L8.30866 8.80171C9.25636 7.91938 9.80101 6.634 9.80101 5.11986Z" fill="#4280EF"/>
<path d="M4.99718 10C6.34792 10 7.4808 9.55341 8.30867 8.7909L6.6965 7.5491C6.24988 7.8541 5.67255 8.02839 4.99718 8.02839C3.69002 8.02839 2.58982 7.14605 2.18678 5.9696L0.531036 7.24409C1.38069 8.93251 3.10179 10 4.99718 10Z" fill="#34A353"/>
<path d="M2.18678 5.95866C1.97981 5.33775 1.97981 4.66238 2.18678 4.04148L0.531036 2.7561C-0.177012 4.1722 -0.177012 5.83883 0.531036 7.24404L2.18678 5.95866Z" fill="#F6B704"/>
<path d="M4.99718 1.98272C5.70523 1.97183 6.40238 2.24416 6.91436 2.73434L8.34135 1.29646C7.43722 0.446805 6.23899 -0.0107029 4.99718 0.000190115C3.10179 0.000190115 1.38069 1.06771 0.531036 2.75613L2.18678 4.04151C2.58982 2.85417 3.69002 1.98272 4.99718 1.98272Z" fill="#E54335"/>
</svg>
