<svg width="22" height="27" viewBox="0 0 22 27" fill="none" xmlns="http://www.w3.org/2000/svg">
<path d="M10.8678 26.5C12.2563 26.4979 13.4836 25.503 13.778 24.1814C13.9246 23.5237 13.3582 23.0766 12.8446 23.0766H8.88338C8.36807 23.0766 7.80704 23.5233 7.94662 24.1774C8.22919 25.5015 9.4213 26.4994 10.8634 26.5L10.8678 26.5ZM20.9376 20.5966L18.7505 18.4095V12.4997C18.7505 8.7171 16.7763 5.40735 13.2351 4.33638C13.2249 4.33332 13.2179 4.32765 13.2142 4.32286C13.2128 4.32097 13.2122 4.31968 13.212 4.31922V3.84615C13.212 2.53124 12.1808 1.5 10.8658 1.5C9.55093 1.5 8.51969 2.53124 8.51969 3.84615V4.31922C8.51951 4.31968 8.51893 4.32094 8.5175 4.32278C8.51387 4.32748 8.507 4.33304 8.49707 4.33603C4.95683 5.4026 2.98123 8.65971 2.98123 12.4997V18.4083L3.33478 18.7618L2.98123 18.4083L0.792893 20.5966C0.605357 20.7842 0.5 21.0385 0.5 21.3037V21.8077C0.5 22.36 0.947715 22.8077 1.5 22.8077H20.2305C20.7827 22.8077 21.2305 22.36 21.2305 21.8077V21.3037C21.2305 21.0385 21.1251 20.7842 20.9376 20.5966ZM18.7505 18.615V18.5955C18.7511 18.6155 18.7506 18.6356 18.7488 18.6555C18.7499 18.6421 18.7505 18.6286 18.7505 18.615ZM18.6033 18.9694C18.6247 18.9481 18.6442 18.9248 18.6615 18.8999C18.6445 18.9249 18.6252 18.9484 18.6038 18.97L18.6033 18.9694Z" stroke="black" stroke-linejoin="round"/>
<circle cx="19.5" cy="2.5" r="2.5" fill="#FF9900"/>
</svg>
