<svg width="430" height="452" viewBox="0 0 430 452" fill="none" xmlns="http://www.w3.org/2000/svg">
<path d="M378.067 404.584C377.662 409.337 368.459 413.517 362.763 414.36C357.099 415.203 358.852 412.877 360.807 409.438C362.763 405.966 368.965 404.416 370.381 402.831C371.763 401.247 368.864 401.213 365.426 402.798C362.021 404.348 361.549 408.528 356.054 411.124C350.593 413.753 342.335 404.652 342.335 404.652C346.717 404.449 352.953 399.696 352.717 398.247C352.481 396.797 342.132 400.741 340.346 400.944C338.593 401.146 334.548 398.921 333.907 391.774C333.3 384.662 344.998 382.639 344.998 382.639C344.998 382.639 356.627 391.303 358.886 390.763C361.144 390.258 350.391 381.459 350.391 381.459C354.436 379.504 367.01 380.718 367.01 380.718C367.01 380.718 371.19 394.235 373.28 393.157C375.336 392.112 368.965 381.392 368.965 381.392C373.449 381.122 378.977 384.459 378.977 384.459C386.562 390.426 378.471 399.831 378.471 399.831C378.471 399.831 378.471 399.831 378.067 404.584Z" fill="#599DAD"/>
<path d="M339.671 391.977C339.671 391.977 371.46 390.763 378.471 399.831C378.471 399.831 380.022 404.483 384.809 408.73L385.55 410.753C385.55 410.753 380.056 404.955 378.067 404.584C378.067 404.584 381.168 393.325 339.671 391.977V391.977Z" fill="#599DAD"/>
<path d="M384.809 408.73C384.809 408.73 391.652 413.787 392.124 422.787L390.876 422.888C390.876 422.888 388.685 413.585 384.741 409.944C380.831 406.303 384.809 408.73 384.809 408.73Z" fill="#599DAD"/>
<path d="M406.686 387.999C406.686 387.999 393.843 380.819 399.843 371.077C399.843 371.077 404.63 365.11 409.754 363.56C409.754 363.56 407.023 378.088 409.754 378.425C412.484 378.796 411.641 362.009 411.641 362.009C411.641 362.009 425.125 355.537 430.451 356.042C430.451 356.042 422.058 370.234 424.788 369.897C427.519 369.56 436.924 355.2 436.924 355.2C436.924 355.2 450.778 352.604 453.003 360.829C455.228 369.02 451.655 373.133 449.599 373.639C447.542 374.178 434.362 374.01 434.733 375.695C435.07 377.414 443.935 380.145 448.924 378.594C448.924 378.594 443.43 392.112 436.25 391.437C429.069 390.763 426.845 386.314 422.395 385.976C417.945 385.606 414.709 386.819 416.934 387.999C419.159 389.213 426.676 388.404 430.283 391.471C433.856 394.505 436.755 396.393 430.114 397.775C423.44 399.123 411.473 398.28 409.08 393.157C406.686 387.999 406.686 387.999 406.686 387.999V387.999Z" fill="#6BB7BF"/>
<path d="M409.079 393.157C407.023 394.336 403.248 403.067 403.248 403.067V400.505C406.854 393.831 406.686 387.999 406.686 387.999C410.765 375.021 446.699 363.391 446.699 363.391C401.023 381.864 409.079 393.157 409.079 393.157V393.157Z" fill="#6BB7BF"/>
<path d="M403.821 401.82C400.922 407.483 402.304 418.776 402.304 418.776L400.888 419.147C397.719 408.899 403.248 400.505 403.248 400.505C403.248 400.505 406.72 396.157 403.821 401.82Z" fill="#6BB7BF"/>
<path d="M383.123 384.864C379.954 391.64 364.178 392.752 355.38 390.966C346.582 389.145 350.425 386.684 355.178 382.639C359.897 378.628 369.808 379.673 372.74 378.122C375.673 376.538 371.392 374.953 365.527 375.392C359.661 375.864 356.728 381.729 347.256 382.606C337.817 383.516 330.603 365.717 330.603 365.717C337.143 367.74 348.84 364.133 349.312 361.874C349.75 359.616 332.39 359.851 329.693 359.177C326.996 358.503 322.243 353.076 325.176 342.255C328.109 331.434 346.379 334.839 346.379 334.839C346.379 334.839 358.785 353.75 362.392 354.222C365.965 354.66 354.942 335.951 354.942 335.951C361.92 335.277 379.718 343.839 379.718 343.839C379.718 343.839 378.606 365.953 382.213 365.481C385.82 365.043 382.213 345.862 382.213 345.862C388.988 347.918 395.292 355.806 395.292 355.806C403.18 368.65 386.258 378.122 386.258 378.122C386.258 378.122 386.258 378.122 383.123 384.864Z" fill="#86D1CD"/>
<path d="M333.536 345.66C333.536 345.66 380.864 360.964 386.258 378.122C386.258 378.122 386.056 385.774 390.775 394.572V397.943C390.775 397.943 385.82 386.448 383.123 384.864C383.123 384.864 393.708 369.998 333.536 345.66V345.66Z" fill="#6BB7BF"/>
<path d="M390.775 394.572C390.775 394.572 398.09 405.663 393.91 419.147L392.023 418.641C392.023 418.641 393.877 403.775 390.034 396.292C386.224 388.842 390.775 394.572 390.775 394.572V394.572Z" fill="#6BB7BF"/>
<path d="M354.065 415.304H420.305C420.305 433.574 405.473 448.407 387.168 448.407C368.898 448.407 354.065 433.574 354.065 415.304Z" fill="#EE9849"/>
<path d="M395.326 448.171C393.978 448.328 392.607 448.407 391.213 448.407C372.909 448.407 358.111 433.574 358.111 415.304H366.336C366.336 432.192 378.977 446.114 395.326 448.171Z" fill="#F3B175"/>
<path d="M420.743 450.092H353.594C353.594 447.834 355.414 446.013 357.672 446.013H416.664C418.923 446.013 420.743 447.834 420.743 450.092V450.092Z" fill="#EE9849"/>
<path d="M421.047 416.315H352.953V415.304H421.047V416.315Z" fill="#EE9849"/>
<path d="M62.6793 272.476H-14.0439C-25.0669 272.476 -34 263.543 -34 252.52V175.797C-34 164.774 -25.0669 155.841 -14.0439 155.841H62.6793C73.7023 155.841 82.6354 164.774 82.6354 175.797V252.52C82.6354 263.543 73.7023 272.476 62.6793 272.476Z" fill="#E3F0FF"/>
<path d="M67.5334 184.561V241.497C67.5334 243.182 67.23 244.834 66.7244 246.317C64.9378 251.542 60.3195 255.419 54.7237 256.161C54.072 256.251 53.4091 256.295 52.7349 256.295H-4.20072C-10.6393 256.295 -16.1002 252.217 -18.1565 246.52C-18.6959 244.935 -18.9993 243.25 -18.9993 241.497V184.561C-18.9993 176.37 -12.3922 169.763 -4.20072 169.763H52.7349C60.8926 169.763 67.5334 176.37 67.5334 184.561Z" fill="#D2E4FF"/>
<path d="M31.0932 205.731C29.8122 210.147 32.2393 222.114 32.2393 222.114L40.3634 233.305L6.35034 228.215L15.3845 221.912C16.5307 217.934 16.834 209.001 16.834 209.001C16.834 209.001 32.3742 201.315 31.0932 205.731V205.731Z" fill="#FFB27D"/>
<path d="M30.7561 210.686C30.7561 210.686 29.5763 216.417 24.5198 216.585C19.4634 216.72 16.7666 210.248 16.7666 210.248L30.7561 210.686Z" fill="#ED985F"/>
<path d="M13.7665 204.989C13.7665 204.989 12.1147 196.832 10.9686 194.371C9.82249 191.91 8.87862 180.853 21.5197 180.28C21.5197 180.28 26.3739 180.853 29.037 179.235C29.037 179.235 29.037 180.853 28.3628 181.426C28.3628 181.426 32.745 180.381 36.1834 184.19C39.5881 188 33.8912 201.315 34.1608 204.45L13.7665 204.989Z" fill="#B64C41"/>
<path d="M23.9468 214.057C20.2725 213.99 13.5305 209.136 13.5305 203.068V193.629C13.5305 191.438 15.0474 189.618 16.9352 189.618H30.9584C32.8124 189.618 34.3631 191.438 34.3631 193.629V202.529C34.3631 208.866 28.1605 214.158 23.9468 214.057V214.057Z" fill="#FFB27D"/>
<path d="M13.5306 189.314C14.5756 186.685 35.4419 186.618 34.0261 190.764C32.5766 194.876 22.5311 191.269 18.0477 192.112C13.5306 192.989 13.5306 198.686 13.5306 198.686C13.5306 198.686 12.4856 191.977 13.5306 189.314Z" fill="#B64C41"/>
<path d="M66.7244 246.317C64.9378 251.542 60.3196 255.419 54.7238 256.161C54.072 256.251 53.4091 256.295 52.7349 256.295H-4.20069C-10.6392 256.295 -16.1002 252.217 -18.1565 246.52C-3.96473 225.114 5.27171 223.833 5.54138 223.799C6.78864 223.395 9.68768 222.62 13.9351 222.08C14.407 222.035 14.8902 221.979 15.3846 221.912C15.3846 222.013 18.1151 226.024 21.6883 227.71C21.958 227.845 22.2277 227.957 22.4973 228.047C22.9693 228.227 23.4525 228.35 23.9469 228.418C24.3289 228.26 24.7109 228.103 25.093 227.946C25.52 227.766 25.947 227.575 26.3739 227.373C28.228 226.429 30.0146 225.08 32.2394 222.114C32.599 222.159 32.9698 222.204 33.3518 222.249C36.6217 222.653 40.1275 223.294 43.8018 224.238V224.204C43.8018 224.204 44.3075 224.271 45.2513 224.608C48.3189 225.755 56.0047 230.069 66.7244 246.317V246.317Z" fill="#2F5196"/>
<path d="M23.9468 228.418C19.9691 228.316 13.9351 222.08 13.9351 222.08C14.3733 220.361 15.8565 219.754 15.8565 219.754L23.9468 228.418Z" fill="#EE9849"/>
<path d="M23.9468 228.418L31.7674 219.417C31.7674 219.417 33.3855 220.496 33.3518 222.249C33.3518 222.249 27.3177 228.654 23.9468 228.418V228.418Z" fill="#EE9849"/>
<path d="M27.4527 256.295H19.6321C20.5422 245.812 21.6884 235.429 22.2277 230.575C22.3289 229.597 22.3963 228.856 22.4637 228.35C22.4637 228.283 22.4749 228.215 22.4974 228.148C22.4974 228.103 22.4974 228.069 22.4974 228.047C22.5199 227.845 22.5311 227.743 22.5311 227.743H23.3064L24.5537 227.71H25.0593C25.0818 227.71 25.093 227.788 25.093 227.946C25.093 228.036 25.1043 228.148 25.1268 228.283C25.1268 228.373 25.138 228.485 25.1605 228.62C25.1942 229.193 25.2616 230.002 25.3627 231.047C25.7672 236.137 26.61 246.216 27.4527 256.295V256.295Z" fill="#EE9849"/>
<path d="M20.9805 225.215C20.9805 225.215 24.5874 224.878 26.7785 225.08C27.2167 225.114 27.4527 225.62 27.2505 225.99C26.61 227.103 25.3627 229.024 24.048 229.024C22.2277 229.024 19.3287 225.35 20.9805 225.215V225.215Z" fill="#E58638"/>
<path d="M105.423 131.233H27.8571C16.7329 131.233 7.73242 122.198 7.73242 111.074V33.542C7.73242 22.4178 16.7329 13.3837 27.8571 13.3837H105.423C116.547 13.3837 125.581 22.4178 125.581 33.542V111.074C125.581 122.198 116.547 131.233 105.423 131.233V131.233Z" fill="#E3F0FF"/>
<path d="M110.311 42.3741V99.9501C110.311 101.231 110.142 102.512 109.839 103.692C108.625 108.378 105.187 112.153 100.737 113.872C100.58 113.94 100.412 114.007 100.232 114.074C98.7149 114.614 97.0631 114.883 95.3439 114.883H37.8015C37.0374 114.883 36.2958 114.827 35.5767 114.715C30.9248 114.007 26.947 111.175 24.7559 107.231C23.5423 105.074 22.8682 102.579 22.8682 99.9501V42.3741C22.8682 34.1152 29.5427 27.4407 37.8015 27.4407H95.3439C103.603 27.4407 110.311 34.1152 110.311 42.3741V42.3741Z" fill="#D2E4FF"/>
<path d="M74.2078 61.0828C73.0954 64.9594 75.2528 75.4768 75.2528 75.4768L82.3655 85.32L52.4988 80.8366L60.4205 75.3083C61.4318 71.8025 61.6678 63.9481 61.6678 63.9481C61.6678 63.9481 75.3539 57.2062 74.2078 61.0828V61.0828Z" fill="#FFB27D"/>
<path d="M73.9043 65.4314C73.9043 65.4314 72.8931 70.4878 68.4434 70.5889C63.9937 70.7238 61.634 65.0269 61.634 65.0269L73.9043 65.4314Z" fill="#ED985F"/>
<path d="M58.9711 60.4424C58.9711 60.4424 57.5553 53.2623 56.544 51.1049C55.5327 48.9137 54.7237 39.2391 65.8141 38.7334C65.8141 38.7334 70.0953 39.2391 72.4212 37.7896C72.4212 37.7896 72.4212 39.2391 71.8482 39.711C71.8482 39.711 75.6911 38.8008 78.6912 42.1381C81.6914 45.4753 76.6686 57.2063 76.9383 59.9368L58.9711 60.4424Z" fill="#2C3A64"/>
<path d="M77.1068 50.4306V58.2512C77.1068 59.5659 76.8035 60.8469 76.2978 61.993C75.4214 63.9819 73.9044 65.6674 72.2864 66.8135C70.8368 67.8585 69.2862 68.4316 67.9378 68.3978C66.7917 68.3641 65.2748 67.8248 63.8252 66.8472C61.8701 65.5325 59.9824 63.5099 59.1733 61.1503V61.1166L59.1396 61.0154C58.9036 60.2738 58.7688 59.5322 58.7688 58.7232V50.4306C58.7688 48.5092 60.1509 46.9248 61.8027 46.9248H74.1067C75.7585 46.9248 77.1068 48.5092 77.1068 50.4306V50.4306Z" fill="#FFB27D"/>
<path d="M109.839 103.692C108.625 108.378 105.187 112.153 100.737 113.872C100.58 113.94 100.412 114.007 100.232 114.074C100.164 114.007 100.097 113.951 100.029 113.906C99.9621 113.838 99.8947 113.771 99.8272 113.704C99.6699 113.569 99.5014 113.423 99.3216 113.265C99.1418 113.131 98.962 112.985 98.7822 112.827C98.7373 112.782 98.6923 112.737 98.6474 112.692C98.5126 112.58 98.389 112.468 98.2766 112.355C98.0968 112.22 97.917 112.074 97.7372 111.917C97.5799 111.782 97.4114 111.636 97.2316 111.479C96.8046 111.097 96.3664 110.703 95.9169 110.299C95.7821 110.209 95.6472 110.108 95.5124 109.996C95.3776 109.861 95.2315 109.726 95.0742 109.591C94.8944 109.434 94.7146 109.276 94.5348 109.119C94.4449 109.052 94.3663 108.984 94.2988 108.917C94.1865 108.827 94.0741 108.737 93.9618 108.647C93.8719 108.557 93.782 108.467 93.6921 108.378C93.5123 108.243 93.3325 108.097 93.1527 107.939C92.7707 107.602 92.3999 107.276 92.0403 106.962C91.8381 106.782 91.6358 106.602 91.4335 106.422C91.2762 106.288 91.1301 106.164 90.9953 106.052C90.8155 105.894 90.647 105.748 90.4897 105.613C89.6806 104.905 88.939 104.265 88.2985 103.726C88.2985 103.726 88.2985 103.714 88.2985 103.692C88.2985 103.737 88.2985 103.771 88.2985 103.793C88.2985 103.815 88.2985 103.838 88.2985 103.86C88.4334 106.332 88.5682 109.052 88.7031 112.018C88.7705 112.984 88.8379 113.985 88.9053 115.018H45.5884C45.5547 112.962 45.4873 110.939 45.4199 108.883C45.3974 108.119 45.4086 107.254 45.4536 106.288C42.0152 109.288 37.633 113.097 35.5767 114.85C30.9247 114.142 26.947 111.31 24.7559 107.366C40.6331 78.6456 51.4876 77.1287 51.7573 77.095C51.7798 77.095 51.791 77.095 51.791 77.095C53.0045 76.6905 56.0047 75.7466 60.4207 75.3083C60.4207 75.4095 63.8591 80.5671 67.9379 81.1401C70.4661 80.1288 72.455 79.1512 75.2529 75.4769C78.3879 75.814 85.3995 77.3309 85.3995 77.3309C85.3995 77.3309 94.9731 78.1062 109.839 103.692V103.692Z" fill="#F99746"/>
<path d="M58.7688 46.6552C59.7126 44.3292 78.0507 44.2955 76.8034 47.9024C75.5225 51.5431 66.6905 48.3407 62.7465 49.116C58.8025 49.8913 58.7688 54.8803 58.7688 54.8803C58.7688 54.8803 57.8586 48.9811 58.7688 46.6552V46.6552Z" fill="#2C3A64"/>
<path d="M50.7461 114.883H45.5885C45.5548 112.827 45.4873 110.805 45.4199 108.748C45.3975 107.984 45.4087 107.119 45.4536 106.153C45.4536 105.928 45.4649 105.703 45.4873 105.479C45.5323 105.568 45.6222 105.703 45.757 105.883C46.4986 107.164 48.5886 110.636 50.7461 114.883Z" fill="#ED7D2B"/>
<path d="M72.2863 63.3751V66.8135C70.8368 67.8585 69.2862 68.4315 67.9378 68.3978C66.7916 68.3641 65.2747 67.8247 63.8252 66.8472V63.3751C63.8252 61.4536 65.4095 59.8693 67.331 59.8693H68.7805C70.702 59.8693 72.2863 61.4536 72.2863 63.3751V63.3751Z" fill="#2C3A64"/>
<path d="M100.737 113.872C100.58 113.94 100.412 114.007 100.232 114.074C100.164 114.007 100.097 113.951 100.03 113.906C99.9621 113.838 99.8947 113.771 99.8273 113.704C99.67 113.569 99.5014 113.423 99.3217 113.265C99.1419 113.131 98.9621 112.984 98.7823 112.827C98.7374 112.782 98.6924 112.737 98.6475 112.692C98.5126 112.58 98.389 112.468 98.2767 112.355C98.0969 112.22 97.9171 112.074 97.7373 111.917C97.58 111.782 97.4114 111.636 97.2316 111.479C96.8047 111.097 96.3664 110.703 95.917 110.299C95.7821 110.209 95.6473 110.108 95.5125 109.996C95.3776 109.861 95.2316 109.726 95.0742 109.591C94.8945 109.434 94.7147 109.276 94.5349 109.119C94.445 109.052 94.3663 108.984 94.2989 108.917C94.1865 108.827 94.0742 108.737 93.9618 108.647C93.8719 108.557 93.782 108.467 93.6921 108.378C93.5124 108.243 93.3326 108.097 93.1528 107.939C92.7707 107.602 92.3999 107.276 92.0404 106.962C91.8381 106.782 91.6358 106.602 91.4336 106.422C91.2763 106.288 91.1302 106.164 90.9954 106.052C90.8156 105.894 90.647 105.748 90.4897 105.613C89.6807 104.905 88.9391 104.265 88.2986 103.726C88.2761 103.703 88.2649 103.692 88.2649 103.692C88.2649 103.692 88.2761 103.681 88.2986 103.658C88.7031 103.355 92.4449 100.894 94.8046 105.074C96.49 108.007 99.1531 111.715 100.737 113.872V113.872Z" fill="#ED7D2B"/>
<path d="M76.2981 61.993C74.6463 65.7684 70.7697 68.4652 67.9381 68.3978C65.2076 68.3641 60.5894 65.2965 59.1736 61.1502V61.1165L59.1399 61.0154C59.1399 61.0154 62.0726 63.5099 63.9941 62.2626H72.1181C72.1181 62.2626 74.2418 63.4762 76.2981 61.993Z" fill="#2C3A64"/>
<path d="M68.9155 62.9706H67.1626C66.7581 62.9706 66.2524 62.2965 66.2524 61.8919C66.2524 61.8919 66.7581 61.4874 67.1626 61.4874H68.9155C69.32 61.4874 69.9268 61.8245 69.9942 62.0605C69.9942 62.0605 69.7582 62.9706 68.9155 62.9706Z" fill="#FFB27D"/>
<path d="M246.397 128.806H168.864C157.74 128.806 148.706 119.805 148.706 108.681V31.115C148.706 19.9908 157.74 10.9904 168.864 10.9904H246.397C257.521 10.9904 266.555 19.9908 266.555 31.115V108.681C266.555 119.805 257.521 128.806 246.397 128.806Z" fill="#E3F0FF"/>
<path d="M251.285 39.9806V97.523C251.285 101.197 249.97 104.568 247.745 107.198C245.015 110.434 240.902 112.49 236.351 112.49H178.775C175 112.49 171.561 111.074 168.932 108.782C165.797 106.018 163.842 102.006 163.842 97.523V39.9806C163.842 31.7218 170.55 25.0135 178.775 25.0135H236.351C244.61 25.0135 251.285 31.7218 251.285 39.9806V39.9806Z" fill="#D2E4FF"/>
<path d="M201.462 78.5782C201.462 78.5782 192.057 78.1062 191.787 72.679C191.551 67.2854 183.798 63.3077 186.023 58.9591C188.787 53.633 186.259 48.5091 189.765 44.9359C193.574 40.9582 198.428 43.1156 200.99 40.8234C203.518 38.4974 208.204 36.3737 212.788 39.239C217.407 42.0706 220.912 40.5537 223.946 43.2842C227.283 46.318 226.036 50.1272 228.8 52.1835C231.329 54.0712 230.284 59.2625 228.16 63.4762C226.609 66.5101 230.149 69.3417 224.081 72.8475C221.553 74.297 222.092 77.9377 214.44 78.5782C210.968 78.8478 203.484 77.2298 201.462 78.5782Z" fill="#2C3A64"/>
<path d="M215.283 70.6564C214.069 74.8701 216.395 86.1966 216.395 86.1966L224.081 96.8488L191.787 91.9946L200.383 86.028C201.462 82.2188 201.731 73.7577 201.731 73.7577C201.731 73.7577 216.496 66.4427 215.283 70.6564V70.6564Z" fill="#B56F40"/>
<path d="M214.946 75.3757C214.946 75.3757 213.867 80.803 209.046 80.9378C204.226 81.0727 201.698 74.9375 201.698 74.9375L214.946 75.3757Z" fill="#99592E"/>
<path d="M208.507 78.5781C205.001 78.5107 198.596 73.8588 198.596 68.1281V59.1614C198.596 57.0714 200.08 55.3522 201.866 55.3522H215.148C216.934 55.3522 218.384 57.0714 218.384 59.1614V67.6225C218.384 73.6565 212.485 78.6455 208.507 78.5781Z" fill="#B56F40"/>
<path d="M247.745 107.198C245.015 110.434 240.902 112.49 236.351 112.49H230.283C230.283 112.535 230.283 112.58 230.283 112.625H189.495H184.708H178.775C175 112.625 171.561 111.209 168.932 108.917C182.045 89.3315 190.641 87.9831 191.012 87.9494C192.36 87.5449 195.596 86.5336 200.383 86.028C200.383 86.1628 204.091 91.7249 208.507 92.3317C211.237 91.2529 213.395 90.1742 216.395 86.1965C219.766 86.601 223.44 87.3763 227.351 88.3539C227.351 88.3539 238.542 91.3541 247.745 107.198Z" fill="#B64C41"/>
<path d="M198.596 56.4984C198.596 56.4984 198.596 56.4984 199.405 54.6106C200.215 52.7229 211.507 51.4082 211.507 51.4082L220.879 54.2061C220.879 54.2061 219.227 63.3414 218.384 61.3863C217.541 59.3974 216.867 57.7119 208.945 56.5658C201.024 55.4196 198.596 62.8021 198.596 62.8021V56.4984Z" fill="#2C3A64"/>
<path fill-rule="evenodd" clip-rule="evenodd" d="M217.946 65.6337C217.44 67.9933 214.71 68.2967 213.361 68.2967C212.923 68.2967 212.62 68.263 212.586 68.263C211.305 68.263 210.395 67.5214 209.754 65.9708C209.619 65.7011 209.451 65.1954 209.417 64.6561C208.709 64.4538 208.035 64.5549 207.563 64.6898C207.529 65.1954 207.361 65.7011 207.26 65.9708C206.586 67.5214 205.709 68.263 204.428 68.263C204.361 68.263 204.057 68.2967 203.653 68.2967C202.271 68.2967 199.54 67.9933 199.068 65.6337C198.934 64.892 199.068 64.2516 199.473 63.7796C199.911 63.2403 200.619 62.9369 201.462 62.9369H205.675C206.462 62.9369 207.013 63.1616 207.327 63.6111C207.462 63.8133 207.529 64.083 207.563 64.3527C208.035 64.2178 208.743 64.1167 209.451 64.319C209.451 64.0493 209.518 63.8133 209.687 63.6111C209.979 63.1616 210.53 62.9369 211.339 62.9369H215.552C216.361 62.9369 217.103 63.2403 217.541 63.7796C217.946 64.2516 218.081 64.892 217.946 65.6337V65.6337ZM207.294 64.7572C207.159 64.8246 207.058 64.8583 207.058 64.8583C207.035 64.8583 207.013 64.8583 206.99 64.8583C206.923 64.8583 206.855 64.8246 206.855 64.7572C206.822 64.6898 206.855 64.5887 206.923 64.5549C206.956 64.5549 207.091 64.4875 207.294 64.4201C207.294 64.1841 207.226 63.9482 207.091 63.7796C206.844 63.3976 206.372 63.2066 205.675 63.2066H201.462C200.72 63.2066 200.08 63.4762 199.675 63.9482C199.338 64.3864 199.203 64.9258 199.338 65.5662C199.574 66.7798 200.484 67.5551 202.069 67.8922C203.248 68.1282 204.394 67.9933 204.394 67.9933H204.428C205.574 67.9933 206.383 67.3191 206.99 65.8696C207.091 65.6674 207.226 65.2291 207.294 64.7572V64.7572ZM217.339 63.9482C216.934 63.4762 216.294 63.2066 215.552 63.2066H211.339C210.642 63.2066 210.159 63.3976 209.889 63.7796C209.788 63.9482 209.721 64.1504 209.721 64.3864C209.855 64.4313 209.979 64.4875 210.091 64.5549C210.193 64.5887 210.226 64.6898 210.159 64.7909C210.125 64.8583 210.024 64.892 209.957 64.8583C209.867 64.8134 209.788 64.7684 209.721 64.7235C209.721 64.746 209.721 64.7572 209.721 64.7572C209.754 65.2291 209.923 65.6674 209.99 65.8696C210.597 67.3191 211.44 67.9933 212.586 67.9933H212.62C212.62 67.9933 213.766 68.1282 214.946 67.8922C216.496 67.5551 217.406 66.7798 217.676 65.5662C217.777 64.9258 217.676 64.3864 217.339 63.9482V63.9482Z" fill="#2C3A64"/>
<path d="M405.944 126.075L328.918 117.209C317.861 115.928 309.939 105.917 311.22 94.86L320.086 17.8334C321.367 6.77665 331.379 -1.14512 342.435 0.135847L419.462 9.00149C430.519 10.2825 438.441 20.2942 437.16 31.351L428.294 108.378C427.013 119.434 417.001 127.356 405.944 126.075V126.075Z" fill="#E3F0FF"/>
<path d="M420.979 38.3963L414.406 95.5341C414.136 97.7927 413.394 99.8489 412.282 101.636C410.596 104.433 408.001 106.591 405.001 107.771C403.248 108.445 401.394 108.816 399.439 108.782C398.899 108.782 398.36 108.748 397.82 108.681L373.583 105.883L368.796 105.344L353.121 103.523L351.133 103.321L340.649 102.107C335.019 101.433 330.502 97.7589 328.513 92.8373C328.379 92.5227 328.255 92.1968 328.143 91.8598C327.738 90.5788 327.468 89.1967 327.435 87.7809C327.412 87.0393 327.435 86.2864 327.502 85.5223L334.109 28.3508C335.053 20.1593 342.469 14.2939 350.694 15.2377L407.832 21.8111C416.057 22.755 421.923 30.1711 420.979 38.3963V38.3963Z" fill="#D2E4FF"/>
<path d="M395.023 75.4094C394.596 76.151 394.113 76.8252 393.573 77.432C393.775 76.8589 394.011 76.151 394.214 75.2746C394.719 73.1509 395.124 70.0159 395.124 65.5662C395.09 66.0381 394.854 70.8586 393.506 75.2072C393.135 76.4881 392.629 77.7354 392.023 78.7804C391.978 78.8253 391.933 78.8703 391.888 78.9152C390.674 79.8928 389.292 81.0726 387.876 82.4547C383.561 86.6347 378.64 92.3654 374.089 98.1971C372.235 100.591 370.448 103.018 368.797 105.344L353.122 103.523L351.133 103.321L340.649 102.107C335.02 101.433 330.502 97.7589 328.514 92.8373C328.817 91.9609 329.053 91.3541 329.053 91.2867C328.75 91.3878 328.446 91.59 328.143 91.8597C327.738 90.5788 327.469 89.1967 327.435 87.7809C329.862 83.2638 334.379 77.5331 342.806 72.2407C352.043 66.4089 358.515 63.7796 357.571 57.4422C356.661 51.1385 357.268 23.4966 376.482 29.0924C376.482 29.0924 379.348 27.508 380.696 27.6091C380.696 27.6091 379.617 27.9125 379.112 28.5193C381.269 28.2159 384.37 28.1148 387.067 29.362C388.55 30.0362 390.101 32.0588 391.551 34.8904C394.281 36.677 397.416 40.1828 396.135 48.3406C396.36 49.3743 396.562 50.4081 396.742 51.4419C396.764 51.4868 396.776 51.5317 396.776 51.5767C398.326 60.4423 398.292 69.8136 395.023 75.4094V75.4094Z" fill="#163560"/>
<path d="M389.022 80.5333C389.056 80.567 382.685 82.9941 378.303 81.2412C374.19 79.5894 372.033 73.7577 372.1 73.7577C373.954 73.5891 374.73 71.162 375.943 60.5098L376.718 60.7794L390.135 65.0606C390.135 65.0606 389.326 69.3417 388.82 73.4206C388.449 76.8252 388.281 80.0951 389.022 80.5333V80.5333Z" fill="#FFB27D"/>
<path d="M371.965 35.1602C371.965 35.1602 378.134 27.3732 387.236 33.4747C387.236 33.4747 382.213 33.0364 371.965 35.1602Z" fill="#BC3F3F"/>
<path d="M390.135 65.0605C390.135 65.0605 389.326 69.3417 388.82 73.4205C381.202 72.3081 377.932 64.8583 376.718 60.7794L390.135 65.0605Z" fill="#EF9E67"/>
<path d="M392.258 67.5214C392.258 67.5214 374.089 69.3417 373.111 58.0153C372.167 46.6889 369.167 39.2727 380.73 37.621C392.292 35.9692 394.921 40.1155 396.169 43.8235C397.416 47.5316 396.978 66.7461 392.258 67.5214Z" fill="#FFB27D"/>
<path d="M388.989 36.6434C388.989 36.6434 385.146 50.3633 377.662 52.9926C370.179 55.5883 366.673 53.8354 366.673 53.8354C366.673 53.8354 372.134 48.6778 372.673 40.4189C372.673 40.4189 384.708 30.6431 388.989 36.6434V36.6434Z" fill="#163560"/>
<path d="M395.09 37.5535C399.742 42.3065 396.742 51.6778 396.742 51.6778C395.022 52.0149 394.112 46.1157 392.966 43.3178C391.82 40.4862 387.842 37.8232 387.842 37.8232C387.842 37.8232 390.168 32.497 395.09 37.5535V37.5535Z" fill="#163560"/>
<path d="M412.282 101.636C410.597 104.433 408.001 106.591 405.001 107.771C403.248 108.445 401.394 108.816 399.439 108.782C398.899 108.782 398.36 108.748 397.821 108.681L373.583 105.883L368.797 105.344L353.122 103.523L351.133 103.321C351.335 100.793 351.571 98.096 351.874 95.433C350.897 87.646 350.964 80.6344 352.953 76.9601C356.054 71.3306 371.965 72.9149 373.111 73.0498C373.134 73.0498 373.145 73.0498 373.145 73.0498C373.168 73.0498 373.179 73.0498 373.179 73.0498H373.347L388.719 74.297C388.719 74.297 388.73 74.3083 388.753 74.3307C388.775 74.3757 388.888 74.533 389.09 74.8027C390.405 74.8701 391.921 74.9712 393.506 75.2072C393.753 75.2297 393.989 75.2521 394.214 75.2746C394.483 75.3195 394.753 75.3645 395.023 75.4094C398.832 76.0499 402.675 77.2972 404.563 79.6568C407.057 82.7581 409.956 92.0957 412.282 101.636V101.636Z" fill="#BC3F3F"/>
<path d="M416.63 272.881H339.132C328.008 272.881 319.007 263.846 319.007 252.722V175.224C319.007 164.1 328.008 155.099 339.132 155.099H416.63C427.755 155.099 436.789 164.1 436.789 175.224V252.722C436.789 263.846 427.755 272.881 416.63 272.881Z" fill="#E3F0FF"/>
<path d="M421.518 184.089V241.598C421.518 243.014 421.316 244.43 420.945 245.744C419.226 251.745 413.799 256.194 407.327 256.498C407.079 256.52 406.832 256.531 406.585 256.531H349.076C348.964 256.531 348.863 256.531 348.773 256.531C348.661 256.531 348.56 256.531 348.47 256.531C341.964 256.262 336.503 251.812 334.75 245.812C334.345 244.463 334.143 243.048 334.143 241.598V184.089C334.143 175.831 340.818 169.122 349.076 169.122H406.585C414.844 169.122 421.518 175.831 421.518 184.089V184.089Z" fill="#D2E4FF"/>
<path d="M385.584 206.945C384.101 212.035 386.932 225.755 386.932 225.755L396.236 238.598L357.234 232.766L367.583 225.519C368.898 220.934 369.235 210.72 369.235 210.72C369.235 210.72 387.067 201.888 385.584 206.945Z" fill="#FFB27D"/>
<path d="M385.179 212.675C385.179 212.675 383.865 219.249 378.067 219.383C372.235 219.552 369.167 212.136 369.167 212.136L385.179 212.675Z" fill="#ED985F"/>
<path d="M365.695 206.136C365.695 206.136 363.807 196.764 362.526 193.933C361.212 191.101 360.099 178.426 374.628 177.786C374.628 177.786 380.19 178.426 383.258 176.572C383.258 176.572 383.258 178.426 382.483 179.1C382.483 179.1 387.505 177.887 391.416 182.235C395.36 186.618 388.82 201.888 389.123 205.495L365.695 206.136Z" fill="#2C3A64"/>
<path d="M377.392 216.518C373.179 216.451 365.426 210.855 365.426 203.911V193.09C365.426 190.528 367.212 188.472 369.37 188.472H385.415C387.573 188.472 389.359 190.528 389.359 193.09V203.304C389.359 210.585 382.213 216.619 377.392 216.518Z" fill="#FFB27D"/>
<path d="M365.425 188.135C366.639 185.101 390.573 185.033 388.955 189.786C387.303 194.506 375.774 190.359 370.617 191.337C365.459 192.348 365.425 198.854 365.425 198.854C365.425 198.854 364.246 191.168 365.425 188.135V188.135Z" fill="#2C3A64"/>
<path d="M403.652 256.531H349.076C348.964 256.531 348.863 256.531 348.773 256.531C350.155 244.025 353.122 228.957 355.481 227.946C355.481 227.946 355.751 227.845 356.256 227.676C356.279 227.676 356.29 227.676 356.29 227.676C357.504 227.305 360.133 226.564 363.976 225.99C365.077 225.811 366.28 225.653 367.583 225.519C367.583 225.687 372.066 232.227 377.392 232.968C380.696 231.654 383.292 230.541 386.932 225.755C388.123 225.889 389.348 226.058 390.607 226.26C393.64 226.698 396.843 227.339 400.18 228.182C400.585 228.294 400.989 228.395 401.394 228.485C401.551 228.53 401.708 228.575 401.866 228.62C401.866 228.62 401.899 228.788 402 229.766C402.203 231.991 402.675 238.396 403.652 256.531V256.531Z" fill="#739AF0"/>
<path d="M363.976 225.99C363.976 225.99 363.976 226.732 363.976 228.047C363.942 229.395 363.942 231.317 363.909 233.744C363.841 239.272 363.706 247.295 363.572 256.531H354.504H349.076C348.964 256.531 348.863 256.531 348.773 256.531C348.661 256.531 348.559 256.531 348.47 256.531C341.964 256.262 336.503 251.812 334.75 245.812C344.795 232.699 352.009 229.058 354.908 228.047C354.908 228.047 354.919 228.047 354.942 228.047C354.942 228.047 354.953 228.036 354.976 228.013C354.998 228.013 355.02 228.013 355.043 228.013C355.38 227.878 355.65 227.811 355.886 227.777C355.886 227.755 355.897 227.743 355.919 227.743C357.605 227.271 361.111 226.328 363.976 225.99V225.99Z" fill="#2B478B"/>
<path d="M420.945 245.744C419.226 251.745 413.799 256.194 407.327 256.498C407.079 256.52 406.832 256.531 406.585 256.531H401.259H390.91C390.809 249.318 390.742 242.845 390.674 237.755C390.674 235.025 390.64 232.699 390.607 230.845C390.607 227.979 390.607 226.328 390.607 226.26C390.607 226.238 390.607 226.226 390.607 226.226C394.079 226.665 398.427 227.71 400.349 228.182C400.349 228.182 400.36 228.182 400.382 228.182C400.618 228.249 401.124 228.35 401.866 228.62C404.798 229.699 411.54 233.407 420.945 245.744V245.744Z" fill="#2B478B"/>
<path fill-rule="evenodd" clip-rule="evenodd" d="M388.011 200.405C387.472 203.068 384.37 203.405 382.853 203.405C382.381 203.405 382.044 203.371 381.977 203.371C380.527 203.371 379.516 202.562 378.808 200.809C378.673 200.506 378.471 199.899 378.437 199.292C377.628 199.09 376.853 199.225 376.347 199.36C376.314 199.933 376.111 200.506 375.977 200.809C375.269 202.562 374.257 203.371 372.808 203.371C372.741 203.371 372.403 203.405 371.931 203.405C370.415 203.405 367.313 203.068 366.774 200.405C366.639 199.596 366.774 198.888 367.212 198.315C367.718 197.708 368.561 197.371 369.471 197.371H374.19C375.111 197.371 375.741 197.629 376.078 198.146C376.246 198.382 376.314 198.686 376.347 198.955C376.887 198.82 377.662 198.719 378.437 198.922C378.471 198.652 378.539 198.382 378.707 198.146C379.044 197.629 379.673 197.371 380.595 197.371H385.314C386.258 197.371 387.067 197.708 387.573 198.315C388.011 198.888 388.18 199.596 388.011 200.405ZM376.044 199.461C375.876 199.495 375.774 199.528 375.774 199.528C375.752 199.551 375.729 199.562 375.707 199.562C375.64 199.562 375.572 199.528 375.538 199.461C375.505 199.36 375.538 199.259 375.64 199.191C375.64 199.191 375.808 199.124 376.044 199.056C376.01 198.787 375.977 198.517 375.808 198.315C375.538 197.888 374.999 197.674 374.19 197.674H369.471C368.628 197.674 367.92 197.978 367.482 198.517C367.077 198.989 366.942 199.63 367.077 200.337C367.381 201.72 368.392 202.596 370.145 202.933C371.493 203.236 372.774 203.068 372.774 203.068H372.808C374.089 203.068 375.033 202.326 375.707 200.675C375.808 200.472 375.977 199.967 376.044 199.461V199.461ZM387.303 198.517C386.865 197.978 386.157 197.674 385.314 197.674H380.595C379.786 197.674 379.246 197.888 378.977 198.315C378.842 198.517 378.775 198.753 378.741 199.023C378.898 199.068 379.055 199.124 379.213 199.191C379.28 199.259 379.314 199.36 379.28 199.461C379.213 199.562 379.112 199.596 379.011 199.528C378.921 199.483 378.831 199.45 378.741 199.427C378.808 199.967 378.977 200.472 379.078 200.675C379.752 202.326 380.696 203.068 381.977 203.068H382.011C382.011 203.068 383.292 203.236 384.64 202.933C386.393 202.596 387.404 201.72 387.708 200.337C387.842 199.63 387.708 198.989 387.303 198.517V198.517Z" fill="#B64C41"/>
<path d="M227.991 287.039H138.121C125.21 287.039 114.76 276.555 114.76 263.678V173.808C114.76 160.897 125.21 150.447 138.121 150.447H227.991C240.902 150.447 251.352 160.897 251.352 173.808V263.678C251.352 276.555 240.902 287.039 227.991 287.039V287.039Z" fill="#E3F0FF"/>
<path d="M233.654 184.056V250.767C233.654 258.015 229.205 264.251 222.834 266.813C222.474 266.97 222.092 267.116 221.688 267.251C220.002 267.79 218.215 268.094 216.328 268.094H149.65C140.076 268.094 132.29 260.341 132.29 250.767V184.056C132.29 174.482 140.076 166.729 149.65 166.729H216.328C225.901 166.729 233.654 174.482 233.654 184.056Z" fill="#D2E4FF"/>
<path d="M202.844 220.024C199.81 222.316 192.461 222.046 192.461 222.046C192.866 221.642 193.304 220.765 193.304 220.765C191.079 222.586 184.54 221.945 184.54 221.945C187.101 219.215 187.91 216.585 187.843 214.293L182.517 213.922C181.169 217.361 179.079 220.765 177.191 222.215C173.685 224.844 166.64 224.204 166.64 224.204C166.977 223.833 167.213 222.721 167.213 222.721C166.977 223.428 165.696 223.934 165.696 223.934C164.819 223.934 162.999 223.024 162.999 223.024C162.999 223.024 167.145 223.024 168.022 212.911L165.426 208.259C159.965 194.742 164.853 189.82 168.224 187.528C172.471 184.662 176.989 184.224 176.989 184.224C179.517 183.853 181.708 183.954 183.562 184.393C203.923 180.213 205.844 217.732 202.844 220.024V220.024Z" fill="#233862"/>
<path d="M208.979 268.094H157.033C156.426 264.049 156.021 260.307 156.257 256.7C156.561 252.149 158.583 248.07 160.943 244.767C164.786 239.373 169.573 236.002 169.573 236.002C169.573 236.002 169.707 235.968 169.91 235.935C170.28 235.867 170.921 235.766 171.595 235.699C172.269 235.362 172.505 233.036 172.606 230.272C172.606 229.496 172.64 228.721 172.64 227.912C172.618 227.215 172.606 226.53 172.606 225.856C172.584 225.541 172.573 225.226 172.573 224.912C172.573 224.822 172.573 224.732 172.573 224.642C172.573 224.507 172.561 224.384 172.539 224.271C172.539 224.159 172.539 224.058 172.539 223.968C172.539 223.811 172.539 223.653 172.539 223.496C172.516 223.294 172.505 223.091 172.505 222.889C172.505 222.844 172.505 222.81 172.505 222.788C172.483 222.586 172.472 222.395 172.472 222.215C172.449 222.013 172.438 221.81 172.438 221.608V221.44C172.415 221.125 172.393 220.833 172.37 220.563C172.37 220.473 172.37 220.395 172.37 220.327C172.37 220.237 172.37 220.159 172.37 220.091C172.348 220.024 172.337 219.956 172.337 219.889C172.337 219.664 172.325 219.473 172.303 219.316C172.303 219.271 172.303 219.237 172.303 219.215C172.303 219.17 172.303 219.136 172.303 219.114C172.281 218.956 172.269 218.878 172.269 218.878L181.034 217.158L187.068 215.945L187.742 215.81L187.944 215.776V215.81C187.911 218.035 188.045 220.125 188.281 222.013C188.45 223.631 188.72 225.114 188.989 226.429C190.102 231.283 191.787 234.182 193.034 234.687C193.079 234.687 193.113 234.699 193.136 234.721C199.136 235.935 208.204 251.441 208.979 268.094V268.094Z" fill="#D9935C"/>
<path d="M187.068 215.945C185.248 220.125 180.899 227.676 172.64 227.912C172.606 223.53 172.269 218.878 172.269 218.878L187.068 215.945Z" fill="#CB7D45"/>
<path d="M163.235 198.079C164.246 194.034 166.673 189.382 179.146 190.09C191.652 190.831 189.09 198.989 189.09 211.158C189.09 223.361 169.505 223.024 169.505 223.024C164.415 222.619 162.257 202.158 163.235 198.079V198.079Z" fill="#D9935C"/>
<path d="M187.978 192.382C189.293 201.113 195.596 206.135 195.596 206.135C195.596 206.135 192.023 208.327 183.832 206.203C175.606 204.113 170.247 189.786 170.247 189.786C174.292 183.011 187.978 192.382 187.978 192.382V192.382Z" fill="#233862"/>
<path d="M171.561 190.966C171.561 190.966 167.583 194.168 166.606 197.27C165.628 200.371 165.19 206.742 163.302 206.54C163.302 206.54 159.291 196.798 163.808 191.303C168.629 185.505 171.561 190.966 171.561 190.966Z" fill="#233862"/>
<path d="M173.753 192.146C174.629 202.023 185.012 211.192 185.012 211.192C174.629 206.405 170.82 191.438 170.82 191.438C170.82 191.438 172.876 182.235 173.753 192.146V192.146Z" fill="#233862"/>
<path d="M222.834 266.813C222.474 266.97 222.092 267.116 221.688 267.251C220.002 267.79 218.216 268.094 216.328 268.094H172.303H155.954H154.605C155.212 256.734 155.313 243.924 156.459 241.767C158.078 238.733 166.572 236.542 170.078 235.766C170.854 235.025 170.786 233.508 170.483 232.126C170.247 230.946 171.292 229.934 172.438 230.238C172.483 230.238 172.539 230.249 172.606 230.272C174.865 230.811 178.775 230.676 182.989 229.294C183.483 229.137 183.989 228.957 184.506 228.755C184.596 228.71 184.686 228.676 184.776 228.654C184.91 228.586 185.034 228.53 185.146 228.485C185.349 228.395 185.54 228.316 185.719 228.249C185.809 228.204 185.91 228.148 186.023 228.08C186.135 228.036 186.259 227.979 186.394 227.912C186.506 227.844 186.63 227.777 186.764 227.71C186.899 227.665 187.023 227.609 187.135 227.541C187.27 227.451 187.405 227.373 187.54 227.305C187.675 227.238 187.798 227.17 187.911 227.103C188.09 226.991 188.27 226.878 188.45 226.766C188.63 226.653 188.81 226.541 188.989 226.429C189.147 226.339 189.293 226.238 189.428 226.125C190.034 225.721 190.877 226.092 190.978 226.833C191.282 229.496 192.091 234.35 193.574 234.35C195.596 234.35 209.35 236.036 210.361 237.721C210.732 238.328 214.305 246.419 218.822 257.172C218.822 257.172 218.822 257.183 218.822 257.206C218.98 257.565 219.148 257.947 219.328 258.352C219.643 259.116 219.968 259.891 220.306 260.678C221.115 262.667 221.991 264.723 222.834 266.813V266.813Z" fill="#F99746"/>
<path d="M201.563 268.094H193.304C195.394 264.622 197.383 262.094 198.529 261.959C199.54 261.858 200.585 264.453 201.563 268.094Z" fill="#ED7D2B"/>
<path d="M193.574 234.35C193.574 234.35 183.259 240.89 175.438 239.339C175.438 239.339 173.584 238.16 176.146 236.946C178.573 235.834 184.236 232.564 182.989 229.294C185.146 228.586 187.338 227.575 189.428 226.125C190.034 225.721 190.877 226.092 190.978 226.833C191.282 229.496 192.091 234.35 193.574 234.35V234.35Z" fill="#ED7D2B"/>
<path d="M300.602 270.285C300.602 270.285 316.311 286.364 317.052 292.567C317.827 298.736 309.501 308.444 309.501 308.444L300.602 270.285Z" fill="#ED7D2B"/>
<path d="M293.59 440.586C293.59 440.586 293.051 449.317 291.365 449.418C291.129 449.452 282.769 449.452 282.769 449.452L272.117 449.384C272.117 449.384 272.185 446.822 275.32 446.283C278.421 445.744 283.646 443.553 285.534 439.44C287.523 435.091 293.59 440.586 293.59 440.586V440.586Z" fill="#163560"/>
<path d="M317.322 440.586C317.322 440.586 316.783 449.317 315.063 449.418C314.861 449.452 306.501 449.452 306.501 449.452L295.849 449.384C295.849 449.384 295.916 446.822 299.051 446.283C302.153 445.744 307.378 443.553 309.265 439.44C311.22 435.091 317.322 440.586 317.322 440.586Z" fill="#163560"/>
<path d="M312.198 333.356C312.198 333.356 308.456 374.785 313.243 390.696C318.03 406.607 317.929 441.193 317.929 441.193L306.771 441.496C306.771 441.496 305.355 427.81 294.972 396.157C284.556 364.537 281.792 346.705 281.792 346.705L312.198 333.356Z" fill="#163560"/>
<path d="M308.658 335.378C308.658 335.378 297.635 375.493 299.557 392.01C301.445 408.494 294.804 441.496 294.804 441.496L283.68 441.125C283.68 441.125 285.264 427.136 280.612 394.168C275.96 361.166 276.365 334.333 276.365 334.333L308.658 335.378Z" fill="#1C468A"/>
<path d="M297.905 271.498L291.972 275.375L283.41 273.791C283.511 273.083 284.084 270.217 284.59 267.622C284.635 267.464 284.668 267.307 284.691 267.15C285.129 264.959 285.5 263.071 285.5 263.071L293.523 259.531L296.489 258.217C296.489 258.251 296.253 260.644 296.253 261.015C295.68 267.251 297.905 271.498 297.905 271.498V271.498Z" fill="#FFB27D"/>
<path d="M285.601 269.51C285.77 269.442 295.916 266.442 297.029 266.813C298.107 267.184 298.782 269.307 298.782 269.307L282.163 273.083C282.163 273.083 283.478 270.42 285.601 269.51V269.51Z" fill="#ED7D2B"/>
<path d="M312.939 337.637C311.22 345.491 282.567 346.435 275.185 339.289C274.342 338.48 274.308 334.704 274.612 329.614C275.252 319.67 277.241 304.669 277.308 297.017C277.342 293.342 277.848 289.567 278.522 286.128C279.971 278.813 282.163 273.083 282.163 273.083C282.163 273.083 296.152 268.566 298.781 269.307C311.389 273.015 314.659 329.782 312.939 337.637V337.637Z" fill="#FF9843"/>
<path d="M274.612 329.614C275.252 319.67 277.241 304.669 277.309 297.017C277.342 293.342 277.848 289.567 278.522 286.128L286.95 284.645C286.95 284.645 295.175 318.254 274.612 329.614Z" fill="#ED7D2B"/>
<path d="M282.264 315.051C284.522 316.771 283.039 321.254 283.241 321.827C283.444 322.4 281.59 323.816 280.679 324.119C279.769 324.389 277.106 322.602 276.837 321.524C276.567 320.445 277.342 318.962 278.556 318.018C279.769 317.108 279.196 315.726 279.196 315.726C279.196 315.726 280.039 313.332 282.264 315.051V315.051Z" fill="#FFB27D"/>
<path d="M288.568 295.298C287.253 291.859 277.848 299.478 277.207 300.219C275.69 301.972 283.41 313.534 283.41 313.534C283.241 316.636 280.174 318.018 278.286 318.018C276.398 318.018 265.409 305.984 264.195 302.511C263.016 299.039 267.297 291.859 273.836 282.218C280.376 272.577 288.601 271.06 288.601 271.06C288.601 271.06 290.792 300.994 288.568 295.298Z" fill="#FF9843"/>
<path d="M295.647 261.116C293.894 264.082 287.32 266.678 284.59 267.622C284.635 267.465 284.669 267.307 284.691 267.15C285.129 264.959 285.5 263.071 285.5 263.071L293.523 259.532C295.276 259.498 296.355 259.902 295.647 261.116Z" fill="#FCA56B"/>
<path d="M283.208 244.834C284.657 242.34 287.152 239.71 295.276 242.643C303.433 245.542 300.163 250.464 297.77 258.52C295.377 266.577 282.5 262.565 282.5 262.565C279.196 261.318 281.758 247.329 283.208 244.834Z" fill="#FFB27D"/>
<path d="M305.827 243.89C307.479 246.823 300.231 263.476 294.265 262.97C288.264 262.464 289.613 257.981 289.882 255.149C290.152 252.318 288.399 252.621 286.478 253.026C284.522 253.43 283.713 244.059 283.713 244.059C276.837 233.777 301.074 235.463 305.827 243.89Z" fill="#163560"/>
<path d="M208.474 449.452H125.851C113.985 449.452 104.344 439.845 104.344 427.979V345.323C104.344 333.457 113.985 323.85 125.851 323.85H208.474C220.339 323.85 229.98 333.457 229.98 345.323V427.979C229.98 439.845 220.339 449.452 208.474 449.452Z" fill="#E3F0FF"/>
<path d="M213.698 354.761V416.079C213.698 420.293 212.08 424.102 209.417 426.967C206.518 430.069 202.372 432.024 197.754 432.024H136.436C131.683 432.024 127.435 429.968 124.536 426.698C122.008 423.866 120.491 420.158 120.491 416.079V354.761C120.491 345.963 127.638 338.817 136.436 338.817H197.754C206.552 338.817 213.698 345.963 213.698 354.761Z" fill="#D2E4FF"/>
<path d="M155.077 384.999C155.077 384.999 146.178 368.852 154.336 361.706C162.493 354.593 176.887 358.84 179.517 361.706C182.18 364.605 185.686 372.762 178.404 384.392L155.077 384.999Z" fill="#2C3A64"/>
<path d="M174.73 387.965C173.281 392.921 176.011 406.27 176.011 406.27L185.079 418.81L147.088 413.113L157.167 406.067C158.448 401.618 158.785 391.64 158.785 391.64C158.785 391.64 176.146 383.01 174.73 387.965V387.965Z" fill="#B56F40"/>
<path d="M174.326 393.527C174.326 393.527 173.045 399.932 167.381 400.101C161.718 400.236 158.718 393.022 158.718 393.022L174.326 393.527Z" fill="#99592E"/>
<path d="M166.741 397.303C162.628 397.235 155.077 391.774 155.077 384.999V374.448C155.077 371.953 156.797 369.931 158.92 369.931H174.562C176.685 369.931 178.404 371.953 178.404 374.448V384.392C178.404 391.505 171.46 397.37 166.741 397.303Z" fill="#B56F40"/>
<path d="M209.417 426.967C206.518 430.069 202.372 432.024 197.754 432.024H136.436C131.683 432.024 127.435 429.968 124.536 426.698C137.683 409.236 146.009 408.124 146.212 408.09C147.762 407.618 151.571 406.539 157.201 405.933C157.201 406.101 161.617 412.54 166.808 413.248C170.044 412 172.438 410.753 175.977 406.067C179.989 406.506 184.405 407.45 189.023 408.596V408.562C189.023 408.562 196.81 410.517 209.417 426.967Z" fill="#74ACBE"/>
<path d="M155.044 371.313C155.044 371.313 155.044 371.313 156.021 369.054C156.965 366.829 170.28 365.312 170.28 365.312L181.303 368.582C181.303 368.582 179.382 379.369 178.404 377.043C177.393 374.717 176.584 372.728 167.247 371.38C157.943 370.032 155.077 378.729 155.077 378.729L155.044 371.313Z" fill="#2C3A64"/>
<path d="M165.965 361.908C165.965 361.908 156.122 352.941 160.336 351.02C164.583 349.098 165.965 361.908 165.965 361.908Z" fill="#2C3A64"/>
<path d="M165.561 362.144C165.561 362.144 153.122 357.424 156.325 354.087C159.561 350.75 165.561 362.144 165.561 362.144Z" fill="#2C3A64"/>
<path d="M166.404 362.38C166.404 362.38 164.348 350.851 169.269 350.918C174.225 351.02 166.404 362.38 166.404 362.38Z" fill="#2C3A64"/>
<path d="M167.078 361.638C167.078 361.638 172.438 349.199 177.393 350.379C182.382 351.525 167.078 361.638 167.078 361.638Z" fill="#2C3A64"/>
<path d="M166.808 362.38C166.808 362.38 175.303 351.862 179.787 354.323C184.27 356.784 166.808 362.38 166.808 362.38Z" fill="#2C3A64"/>
<path d="M421.856 343.132C422.058 342.221 422.968 341.513 423.878 341.513H434.868C435.778 341.513 436.351 342.221 436.115 343.132C435.913 344.042 435.002 344.783 434.126 344.783H423.103C422.226 344.783 421.653 344.042 421.856 343.132V343.132Z" fill="#CBE2F7"/>
<path d="M415.147 368.481C415.349 367.605 416.26 366.863 417.17 366.863H428.159C429.069 366.863 429.642 367.605 429.406 368.481C429.204 369.391 428.294 370.133 427.417 370.133H416.394C415.518 370.133 414.945 369.391 415.147 368.481V368.481Z" fill="#CBE2F7"/>
<path d="M409.787 393.864C410.023 392.954 410.934 392.213 411.81 392.213H422.833C423.709 392.213 424.283 392.954 424.08 393.864C423.878 394.741 422.968 395.482 422.058 395.482H411.068C410.158 395.482 409.585 394.741 409.787 393.864V393.864Z" fill="#CBE2F7"/>
<path d="M465.51 420.225C465.307 421.136 464.397 421.877 463.487 421.877H422.766C421.856 421.877 421.316 421.136 421.518 420.225C421.721 419.349 422.631 418.607 423.507 418.607H464.229C465.139 418.607 465.712 419.349 465.51 420.225V420.225Z" fill="#CBE2F7"/>
<path d="M463.756 427.81C463.689 428.08 463.419 428.316 463.15 428.316H420.136C419.866 428.316 419.698 428.08 419.765 427.81C419.833 427.54 420.102 427.304 420.372 427.304H463.352C463.655 427.304 463.824 427.54 463.756 427.81V427.81Z" fill="#CBE2F7"/>
<path d="M463.217 430.102C463.15 430.406 462.88 430.608 462.61 430.608H419.597C419.327 430.608 419.159 430.406 419.226 430.102C419.293 429.833 419.563 429.63 419.833 429.63H462.846C463.116 429.63 463.285 429.833 463.217 430.102Z" fill="#CBE2F7"/>
<path d="M417.844 420.225C417.642 421.136 416.732 421.877 415.822 421.877H404.832C403.922 421.877 403.349 421.136 403.585 420.225C403.787 419.349 404.697 418.607 405.574 418.607H416.597C417.473 418.607 418.046 419.349 417.844 420.225V420.225Z" fill="#CBE2F7"/>
<path d="M501.612 446.519C501.612 447.328 501.275 448.07 500.736 448.609C500.365 448.98 499.86 449.249 499.32 449.384C499.118 449.429 498.904 449.452 498.68 449.452H416.428C414.81 449.452 413.495 448.137 413.495 446.519C413.495 445.744 413.832 445.002 414.372 444.463C414.877 443.923 415.619 443.62 416.428 443.62H498.68C498.904 443.62 499.118 443.642 499.32 443.687C500.635 443.991 501.612 445.137 501.612 446.519V446.519Z" fill="#EE9849"/>
<path d="M434.564 443.62V449.452H416.428C414.81 449.452 413.495 448.137 413.495 446.519C413.495 445.744 413.832 445.002 414.372 444.463C414.877 443.923 415.619 443.62 416.428 443.62H434.564Z" fill="#739AF0"/>
<path opacity="0.1" d="M484.782 451.621H-25.2069C-25.528 451.621 -25.7888 451.229 -25.7888 450.746V450.444C-25.7888 449.961 -25.528 449.568 -25.2069 449.568H484.782C485.103 449.568 485.364 449.961 485.364 450.444V450.746C485.364 451.229 485.103 451.621 484.782 451.621Z" fill="#2E3552"/>
</svg>
