<svg width="430" height="474" viewBox="0 0 430 474" fill="none" xmlns="http://www.w3.org/2000/svg">
<path d="M320.621 89.6086C313.52 90.9766 307.983 96.8397 305.312 103.484C302.706 110.194 302.641 117.621 303.358 124.722C305.964 149.347 318.537 172.799 337.624 188.629C348.308 197.489 367.265 200.876 379.903 194.623C387.46 190.844 393.128 182.766 392.542 174.362C391.499 160.421 376.646 150.128 367.2 141.594C360.686 135.731 353.65 130.455 347.917 123.875C338.862 113.452 339.904 85.765 320.621 89.6086Z" fill="#FFF0DA"/>
<path d="M391.89 109.804C402.769 101.791 384.659 80.0322 374.496 80.423C369.35 80.6185 364.464 84.9181 364.138 90.716C363.487 101.791 383.226 116.188 391.89 109.804Z" fill="#FFF0DA"/>
<path d="M266.03 419.699C272.219 420.676 278.668 420.872 284.726 419.113C301.338 414.357 303.488 399.243 295.345 385.628C283.423 365.759 262.968 356.769 240.884 353.642C230.46 352.144 216.194 352.209 210.135 362.567C206.748 368.365 207.464 375.726 210.07 381.85C216.78 397.419 234.043 408.038 249.027 414.487C255.281 417.158 261.209 418.982 266.03 419.699Z" fill="#FFF0DA"/>
<path d="M317.796 377.405H106.488C103.871 377.405 101.368 376.253 99.6624 375.28C97.7043 374.163 95.6657 372.622 93.8053 370.77C90.2106 367.192 86.439 361.574 86.439 354.675V30.1398C86.439 23.3952 89.8965 17.8169 93.3505 14.1773C95.1241 12.3084 97.0872 10.7402 99.0065 9.59676C100.686 8.59601 103.173 7.40979 105.836 7.40979H309.327C311.856 7.40979 314.397 8.49505 316.169 9.42451C318.213 10.4963 320.403 11.9905 322.434 13.8095C326.287 17.2605 330.704 22.941 330.704 30.1398V354.675C330.704 359.773 329.907 364.679 328.378 368.551C327.621 370.468 326.557 372.459 325.039 374.079C323.507 375.713 321.064 377.405 317.796 377.405Z" fill="#D2E4FF" stroke="#E3F4FF" stroke-width="13"/>
<path d="M212.22 107.067L262.512 102.898C255.02 98.5333 256.323 62.8989 256.323 62.8989H212.22V107.067Z" fill="#4973ED"/>
<path d="M140.56 149.542C140.56 149.542 174.826 157.294 193.849 150.259V106.09H149.68C147.075 132.735 144.404 141.203 140.56 149.542Z" fill="#C43D4D"/>
<path d="M199.973 242.439H244.141V198.271H199.973V242.439Z" fill="white"/>
<path d="M154.631 309.669C154.631 309.669 197.236 307.454 201.145 298.985L192.481 260.028L148.768 265.891L154.631 309.669Z" fill="#FAEBD6"/>
<path d="M227.334 323.936L271.307 328.17L275.476 284.197L231.568 280.028L227.334 323.936Z" fill="#FFC057"/>
<path d="M162.058 219.443H206.226V175.274H162.058V219.443Z" fill="#97DADE"/>
<path d="M199.712 183.808C189.636 184.026 179.56 184.243 169.485 184.46C169.528 184.764 169.571 185.046 169.615 185.307C169.875 185.263 170.114 185.22 170.331 185.176C170.918 185.111 170.657 184.264 170.136 184.395C169.875 184.395 169.615 184.416 169.354 184.46C168.898 184.59 169.029 185.372 169.485 185.307C179.56 185.09 189.636 184.872 199.712 184.655C200.233 184.655 200.233 183.808 199.712 183.808Z" fill="#3E579E"/>
<path d="M198.67 189.671C188.854 189.802 179.039 189.932 169.224 190.062C169.311 190.323 169.398 190.584 169.485 190.844C169.615 190.757 169.767 190.649 169.941 190.518C170.397 190.193 169.941 189.411 169.485 189.737C169.354 189.867 169.202 189.997 169.029 190.128C168.703 190.388 168.768 190.909 169.224 190.909C179.039 190.822 188.854 190.714 198.67 190.584C199.256 190.584 199.256 189.671 198.67 189.671Z" fill="#3E579E"/>
<path d="M198.995 194.036C193.436 194.297 187.877 194.297 182.318 194.036C181.732 194.036 181.732 194.883 182.318 194.948C187.877 195.165 193.436 195.165 198.995 194.948C199.582 194.883 199.582 194.036 198.995 194.036Z" fill="#3E579E"/>
<path d="M198.148 208.368C188.963 209.345 179.647 209.671 170.397 209.41C170.483 209.671 170.549 209.953 170.592 210.257C170.766 210.127 170.939 210.018 171.113 209.932C171.569 209.606 171.178 208.889 170.657 209.15C170.527 209.28 170.375 209.389 170.201 209.476C169.81 209.736 170.006 210.257 170.397 210.257C179.647 210.518 188.963 210.192 198.148 209.28C198.735 209.215 198.735 208.303 198.148 208.368Z" fill="#3E579E"/>
<path d="M241.991 73.1919C234.999 73.7565 228.007 74.0171 221.014 73.9737C220.493 73.9737 220.493 74.8206 221.014 74.8857C221.232 74.8857 221.449 74.9074 221.666 74.9508C222.252 74.9508 222.252 74.104 221.666 74.0388C221.449 74.0388 221.232 74.0171 221.014 73.9737C221.014 74.2777 221.014 74.5817 221.014 74.8857C228.007 74.8857 234.999 74.6034 241.991 74.0388C242.512 73.9737 242.512 73.1268 241.991 73.1919Z" fill="white"/>
<path d="M241.47 78.1429C234.825 78.9246 228.18 79.1852 221.536 78.9897C220.949 78.9897 220.949 79.8366 221.536 79.8366C221.753 79.8801 221.97 79.9018 222.187 79.9018C222.708 79.9018 222.708 79.0549 222.187 79.0549C221.97 79.0115 221.753 78.9897 221.536 78.9897C221.536 79.2937 221.536 79.576 221.536 79.8366C228.18 80.0321 234.825 79.7715 241.47 78.9897C241.991 78.9246 241.991 78.0777 241.47 78.1429Z" fill="white"/>
<path d="M241.34 92.2794C234.825 93.1914 228.267 93.7343 221.666 93.908C221.145 93.9731 221.145 94.82 221.666 94.82C228.354 94.6029 234.999 94.0383 241.6 93.1263C242.121 92.996 241.861 92.2142 241.34 92.2794Z" fill="white"/>
<path d="M241.666 96.7744C234.63 97.7516 227.594 98.0773 220.493 97.8819C219.972 97.8168 219.972 98.7288 220.493 98.7288C227.659 98.9894 234.825 98.5985 241.861 97.6213C242.447 97.5562 242.187 96.7093 241.666 96.7744Z" fill="white"/>
<path d="M245.118 78.9247H252.74V71.3027H245.118V78.9247Z" fill="white"/>
<path d="M245.379 97.882L252.936 97.4259L252.48 89.804L244.923 90.26L245.379 97.882Z" fill="white"/>
<path d="M250.981 74.2993C250.373 74.9507 249.765 75.5805 249.157 76.1885C249.027 76.3188 248.897 76.4491 248.766 76.5794C248.636 76.7097 248.636 76.7097 248.506 76.5794C248.419 76.4056 248.332 76.2319 248.245 76.0582C248.071 75.6239 247.898 75.2113 247.724 74.8205C247.42 74.2559 247.138 73.6696 246.877 73.0615C246.747 72.6707 246.161 73.0615 246.356 73.3873C246.443 73.6478 246.551 73.9301 246.682 74.2341C247.073 75.081 247.463 75.9931 247.985 76.84C248.115 77.1657 248.375 77.4263 248.766 77.3611C249.157 77.2308 249.418 76.84 249.678 76.5794C250.286 75.9713 250.873 75.3633 251.437 74.7553C251.763 74.4296 251.307 73.9736 250.981 74.2993Z" fill="#4973ED"/>
<path d="M251.633 92.6702C251.502 92.5399 251.307 92.6051 251.177 92.7354C250.656 93.4737 250.113 94.1903 249.548 94.8852C249.483 95.0806 249.353 95.2109 249.222 95.3412C249.157 95.4063 249.157 95.4063 249.092 95.3412C248.962 95.1457 248.831 95.0155 248.766 94.82C248.506 94.4292 248.245 94.0383 247.985 93.6474C247.681 93.1262 247.355 92.6051 247.007 92.0839C246.812 91.693 246.226 92.0188 246.486 92.4096C246.617 92.6702 246.769 92.9308 246.942 93.1914C247.463 93.9731 247.919 94.8852 248.506 95.6669C248.766 95.9275 249.092 96.1229 249.418 95.9926C249.744 95.8623 249.939 95.4715 250.134 95.2109C250.699 94.516 251.242 93.8211 251.763 93.1262C251.828 92.9308 251.763 92.7354 251.633 92.6702Z" fill="#4973ED"/>
<path d="M276.388 295.467C264.184 293.86 251.98 292.253 239.776 290.647C239.255 290.581 239.255 291.493 239.776 291.559C251.98 293.122 264.184 294.707 276.388 296.314C276.909 296.379 276.909 295.532 276.388 295.467Z" fill="white"/>
<path d="M274.499 301.2C263.554 299.81 252.61 298.42 241.665 297.031C241.079 296.966 241.144 297.812 241.665 297.878C252.61 299.267 263.554 300.679 274.499 302.112C275.02 302.177 275.02 301.265 274.499 301.2Z" fill="white"/>
<path d="M269.417 319.571C258.647 318.529 247.876 317.486 237.105 316.444C236.584 316.379 236.584 317.291 237.105 317.291C247.876 318.333 258.647 319.376 269.417 320.418C269.938 320.483 269.938 319.571 269.417 319.571Z" fill="white"/>
<path d="M169.159 109.608L175.022 110.39L177.107 94.8852L171.244 94.1035L169.159 109.608Z" fill="#4973ED"/>
<path d="M167.009 268.236L172.612 266.282L167.465 251.494L161.863 253.448L167.009 268.236Z" fill="#4973ED"/>
<path d="M233.718 156.578L234.89 160.877C235.672 163.787 236.432 166.697 237.17 169.607L247.073 167.457C246.291 163.223 245.509 158.402 244.792 154.167C244.662 153.125 244.467 152.018 244.662 150.975C244.858 149.282 245.639 147.718 246.812 146.611L250.134 143.028C252.154 148.5 254.108 153.907 255.737 159.509L275.606 149.933C271.306 143.679 267.333 137.295 263.424 130.845C263.033 130.194 262.056 128.565 261.665 127.914C258.668 121.595 249.613 120.357 245.248 125.894C243.033 129.021 238.669 135.34 236.389 138.533C232.675 143.809 231.698 150.519 233.718 156.578Z" fill="#F7A27E"/>
<path d="M278.798 132.018C276.323 124.917 268.57 121.204 261.47 123.679L259.58 124.331L271.762 159.249L286.55 154.037L278.798 132.018Z" fill="#F7A27E"/>
<path d="M269.026 144.135C269.113 144.135 269.178 144.113 269.222 144.07C269.548 143.94 269.678 143.614 269.613 143.353C263.033 125.569 258.343 122.833 258.147 122.702C257.887 122.572 257.561 122.637 257.365 122.898C257.235 123.223 257.3 123.549 257.626 123.679C257.691 123.745 262.186 126.611 268.505 143.744C268.57 143.94 268.831 144.135 269.026 144.135Z" fill="#A65137"/>
<path d="M191.048 129.999C192.611 131.757 195.999 133.321 200.298 133.321C205.184 133.321 209.744 133.06 214.305 132.669C219.516 132.148 224.663 131.432 230.265 130.52C230.265 130.52 237.17 145.242 238.148 147.001C238.929 149.347 239.19 151.952 237.627 154.037C236.519 155.405 234.76 155.535 232.871 155.079L245.118 203.547C247.463 205.567 248.962 208.238 250.46 212.733L255.672 228.303L261.274 245.11L314.107 232.081L310.785 224.394L302.772 205.893C299.254 197.749 297.104 189.02 296.518 180.095L295.345 163.418C294.563 153.907 293.13 144.461 290.98 135.145L290.72 134.168C289.547 128.891 284.27 125.634 279.059 126.872L274.238 127.979L278.277 145.503L261.144 150.584C255.737 141.92 250.069 133.321 244.336 124.852L243.685 123.875C241.47 120.292 239.125 116.448 233.457 117.23C230.851 117.556 201.341 123.484 192.285 125.634C189.549 126.35 189.419 128.24 191.048 129.999Z" fill="#F7A27E"/>
<path d="M282.707 141.855C282.75 141.855 282.815 141.855 282.902 141.855C283.163 141.725 283.358 141.399 283.228 141.138C278.342 127.458 274.759 125.373 274.629 125.308C274.303 125.113 273.977 125.243 273.847 125.504C273.652 125.764 273.782 126.155 274.043 126.285C274.108 126.35 277.495 128.5 282.121 141.529C282.251 141.725 282.446 141.855 282.707 141.855Z" fill="#A65137"/>
<path d="M255.932 146.871C256.019 146.871 256.106 146.849 256.193 146.806C256.453 146.676 256.584 146.285 256.388 146.024L244.206 123.614C244.076 123.289 243.685 123.223 243.424 123.354C243.164 123.484 243.034 123.875 243.164 124.135L255.411 146.545C255.476 146.741 255.737 146.871 255.932 146.871Z" fill="#A65137"/>
<path d="M238.669 153.711C238.864 153.711 239.125 153.581 239.19 153.386C241.535 148.5 235.021 139.835 234.76 139.445C234.565 139.184 234.174 139.184 233.913 139.379C233.653 139.575 233.587 139.901 233.783 140.161C233.848 140.226 240.167 148.63 238.148 152.864C238.017 153.125 238.148 153.516 238.408 153.646C238.495 153.69 238.582 153.711 238.669 153.711Z" fill="#A65137"/>
<path d="M230.395 131.953C230.439 131.953 230.482 131.953 230.526 131.953C230.851 131.888 231.047 131.627 230.982 131.301C230.395 128.174 232.089 125.308 232.089 125.243C232.284 124.982 232.219 124.657 231.894 124.461C231.633 124.331 231.307 124.396 231.112 124.657C231.047 124.787 229.158 127.979 229.874 131.497C229.939 131.823 230.135 131.953 230.395 131.953Z" fill="#A65137"/>
<path d="M234.434 120.096C234.695 120.096 234.89 120.031 234.955 119.771C235.802 118.207 238.148 118.468 238.213 118.468C238.538 118.468 238.799 118.272 238.799 117.947C238.864 117.621 238.604 117.295 238.278 117.295C238.148 117.295 235.086 116.969 233.978 119.315C233.783 119.575 233.913 119.901 234.239 120.031C234.282 120.075 234.347 120.096 234.434 120.096Z" fill="#A65137"/>
<path d="M236.324 121.53C236.584 121.53 236.78 121.399 236.845 121.204C237.626 119.64 240.037 119.836 240.102 119.836C240.428 119.901 240.688 119.64 240.688 119.315C240.753 119.054 240.493 118.728 240.167 118.728C240.037 118.728 236.975 118.403 235.868 120.683C235.672 121.008 235.802 121.334 236.128 121.464C236.172 121.508 236.237 121.53 236.324 121.53Z" fill="#A65137"/>
<path d="M308.244 218.335C298.602 221.723 261.339 231.169 255.672 228.303L261.274 245.11L314.107 232.016L308.244 218.335Z" fill="#B56E51"/>
<path d="M328.562 337.59C349.275 355.542 348.558 359.161 383.23 384.519C443.219 418.606 479.564 426.729 501.028 419.297L500.99 393.406L439.373 317.973C433.183 311.844 426.581 305.719 419.88 299.905C398.151 280.957 375.441 263.534 354.315 253.891C352.285 252.939 350.255 252.056 348.227 251.242C343.198 249.261 338.379 247.689 333.793 246.589C324.496 244.431 321.224 240.011 313.44 245.603C308.577 249.079 303.596 253.01 298.724 257.455C293.3 262.298 288.413 267.299 284.164 272.149C276.134 281.41 273.501 281.62 287.319 294.945C298.724 305.942 292.044 305.942 328.562 337.59Z" fill="#FF9843"/>
<path d="M194.565 126.937C197.627 126.22 199.973 125.047 199.842 124.266C199.647 123.484 196.976 124.005 193.914 124.722C190.787 125.438 188.637 126.22 188.768 127.002C188.963 127.783 191.439 127.588 194.565 126.937Z" fill="#DA374A"/>
<path d="M180.82 131.757C180.82 131.757 184.338 135.471 189.614 136.708C189.224 136.383 189.158 134.95 189.549 133.321C189.875 131.757 190.526 130.455 191.048 130.259C185.706 129.412 180.82 131.757 180.82 131.757Z" fill="white"/>
<path d="M189.614 136.708C189.701 136.752 189.788 136.774 189.875 136.774L190.005 136.839L288.114 162.05L288.179 161.985C288.266 162.028 288.374 162.072 288.505 162.115C290.003 162.441 291.827 159.77 292.479 156.187C293.195 152.669 292.544 149.542 291.045 149.216H290.98L191.504 130.324C191.46 130.324 191.438 130.324 191.438 130.324C191.308 130.324 191.178 130.302 191.048 130.259C190.526 130.454 189.875 131.757 189.549 133.321C189.158 134.949 189.223 136.383 189.614 136.708Z" fill="#291A1B"/>
<path d="M197.236 143.288C211.568 163.288 215.607 176.512 222.513 187.717C224.076 190.584 227.92 195.339 237.301 199.183C240.753 200.681 243.229 201.919 245.118 203.547L232.871 155.079C228.311 153.972 222.773 149.477 222.773 149.477C222.773 149.477 222.795 149.564 222.839 149.738L205.64 136.122C199.451 130.259 190.592 134.038 197.236 143.288Z" fill="#F7A27E"/>
<path d="M197.562 141.008C200.363 143.874 204.012 144.852 205.705 143.223C207.334 141.529 206.357 137.881 203.49 135.08C200.624 132.214 196.976 131.236 195.347 132.865C193.719 134.494 194.696 138.142 197.562 141.008Z" fill="#DA374A"/>
<path d="M235.086 155.796C235.52 155.796 235.954 155.731 236.389 155.601C237.692 155.297 238.625 154.558 239.19 153.386C239.32 153.06 239.19 152.734 238.929 152.604C238.669 152.474 238.278 152.604 238.148 152.864C237.757 153.776 237.04 154.298 236.128 154.493C232.545 155.34 226.161 151.562 221.731 148.044C221.47 147.848 221.08 147.913 220.884 148.174C220.689 148.435 220.754 148.76 221.014 148.956C225.379 152.408 231.112 155.796 235.086 155.796Z" fill="#A65137"/>
<path d="M290.394 159.965L294.172 160.747C296.387 161.268 298.602 159.835 299.123 157.62C299.645 155.405 298.211 153.125 295.931 152.669L292.218 151.822C290.003 151.301 287.723 152.734 287.267 154.949C286.746 157.229 288.179 159.444 290.394 159.965Z" fill="#BF381D"/>
<path d="M314.693 217.032H314.628C314.671 217.076 314.715 217.141 314.758 217.229L314.693 217.032Z" fill="#A65638"/>
<path d="M258.277 240.55L258.473 240.941C258.429 240.81 258.386 240.68 258.343 240.55H258.277Z" fill="#A65638"/>
<path d="M258.343 240.55C258.386 240.68 258.429 240.81 258.473 240.941L278.643 280.264L328.569 250.257L314.889 217.488C314.889 217.445 314.867 217.423 314.823 217.423C314.823 217.336 314.802 217.271 314.758 217.228C314.715 217.141 314.671 217.076 314.628 217.032C312.413 214.166 299.058 216.707 284.075 222.961C269.092 229.215 257.887 236.902 258.343 240.55Z" fill="#FF9843"/>
<path d="M187.269 114.233C177.845 113.929 168.421 113.625 158.996 113.321C158.475 113.321 158.475 114.168 158.996 114.233C168.421 114.537 177.845 114.82 187.269 115.08C187.856 115.145 187.856 114.233 187.269 114.233Z" fill="white"/>
<path d="M186.422 121.074C183.035 121.03 179.647 120.987 176.26 120.943C175.739 120.943 175.739 121.79 176.26 121.79C179.647 121.834 183.035 121.877 186.422 121.921C187.009 121.921 187.009 121.074 186.422 121.074Z" fill="white"/>
<path d="M186.422 132.93C176.347 132.496 166.292 132.083 156.26 131.692C155.674 131.627 155.674 132.539 156.26 132.539C166.292 132.973 176.347 133.408 186.422 133.842C187.009 133.842 187.009 132.995 186.422 132.93Z" fill="white"/>
<path d="M183.426 140.747C174.653 139.879 165.88 139.336 157.107 139.119C156.521 139.119 156.521 139.966 157.107 139.966C165.88 140.226 174.653 140.791 183.426 141.659C183.947 141.725 183.947 140.813 183.426 140.747Z" fill="white"/>
</svg>
