<svg width="10" height="11" viewBox="0 0 10 11" fill="none" xmlns="http://www.w3.org/2000/svg">
<path d="M7.94118 0.5H2.05882C1.51279 0.5 0.98912 0.716911 0.603016 1.10302C0.216911 1.48912 0 2.01279 0 2.55882V8.44118C0 8.98721 0.216911 9.51088 0.603016 9.89699C0.98912 10.2831 1.51279 10.5 2.05882 10.5H7.94118C8.48721 10.5 9.01088 10.2831 9.39699 9.89699C9.78309 9.51088 10 8.98721 10 8.44118V2.55882C10 2.01279 9.78309 1.48912 9.39699 1.10302C9.01088 0.716911 8.48721 0.5 7.94118 0.5ZM4.11765 1.67647H5.88235V3.44118H4.11765V1.67647ZM2.94118 9.32353H2.05882C1.82481 9.32353 1.60038 9.23057 1.43491 9.06509C1.26943 8.89962 1.17647 8.67519 1.17647 8.44118V7.55882H2.94118V9.32353ZM5.88235 9.32353H4.11765V7.55882H5.88235V9.32353ZM8.82353 8.44118C8.82353 8.67519 8.73057 8.89962 8.56509 9.06509C8.39962 9.23057 8.17519 9.32353 7.94118 9.32353H7.05882V7.55882H8.82353V8.44118ZM8.82353 6.38235H1.17647V2.55882C1.17647 2.32481 1.26943 2.10038 1.43491 1.93491C1.60038 1.76943 1.82481 1.67647 2.05882 1.67647H2.94118V4.02941C2.94118 4.18542 3.00315 4.33504 3.11347 4.44536C3.22378 4.55567 3.3734 4.61765 3.52941 4.61765H8.82353V6.38235ZM8.82353 3.44118H7.05882V1.67647H7.94118C8.17519 1.67647 8.39962 1.76943 8.56509 1.93491C8.73057 2.10038 8.82353 2.32481 8.82353 2.55882V3.44118Z" fill="#6563FF"/>
</svg>
