<svg width="19" height="18" viewBox="0 0 19 18" fill="none" xmlns="http://www.w3.org/2000/svg">
<path d="M2.47534 7.90031C2.47534 4.63254 5.13316 1.97508 8.40135 1.97508C11.6695 1.97508 14.3274 4.63254 14.3274 7.90031C14.3274 11.1681 11.6695 13.8256 8.40135 13.8256C5.13316 13.8256 2.47534 11.1681 2.47534 7.90031ZM18.3179 16.3116L14.6355 12.7363C15.7159 11.3557 16.3028 9.65324 16.3027 7.90031C16.3027 3.54428 12.758 0 8.40135 0C4.04474 0 0.5 3.54428 0.5 7.90031C0.5 12.2563 4.04474 15.8006 8.40135 15.8006C10.1544 15.8001 11.8569 15.2133 13.238 14.1337L16.9213 17.7081C17.0591 17.8472 17.2351 17.942 17.4271 17.9807C17.6189 18.0192 17.818 17.9999 17.9987 17.925C18.1796 17.8502 18.3341 17.7231 18.4424 17.5601C18.5509 17.3972 18.6082 17.2056 18.6073 17.0099C18.6073 16.748 18.5032 16.4969 18.3179 16.3116Z" fill="black"/>
</svg>
