<svg width="22" height="23" viewBox="0 0 22 23" fill="none" xmlns="http://www.w3.org/2000/svg">
<path d="M10.7013 0.959717C4.80086 0.959717 0 5.76057 0 11.6611C0 17.5616 4.80086 22.3624 10.7013 22.3624C16.6018 22.3624 21.4027 17.5616 21.4027 11.6611C21.4027 5.76057 16.6018 0.959717 10.7013 0.959717ZM16.6823 8.84492L9.8431 15.6305C9.44079 16.0328 8.7971 16.0596 8.36797 15.6573L4.74722 12.3584C4.31809 11.9561 4.29127 11.2856 4.66675 10.8565C5.06906 10.4273 5.73957 10.4005 6.1687 10.8028L9.03848 13.4312L15.1535 7.31616C15.5827 6.88703 16.2532 6.88703 16.6823 7.31616C17.1114 7.74528 17.1114 8.41579 16.6823 8.84492Z" fill="#00052C"/>
</svg>
